<svg xmlns="http://www.w3.org/2000/svg" width="32" height="32" fill="none">
	<path fill="#2B70C8"
		d="M27.949 26H4.051c-1.5 0-2.718-1.178-2.718-2.632V8.631C1.333 7.178 2.55 6 4.051 6h23.898c1.5 0 2.718 1.178 2.718 2.631v14.737c0 1.454-1.216 2.632-2.718 2.632Z" />
	<path fill="#CFD8DC" fill-rule="evenodd"
		d="M30 23.368V8.631c0-1.064-.898-1.964-2.051-1.964H4.051C2.898 6.667 2 7.567 2 8.63v14.737c0 1.066.898 1.965 2.05 1.965H27.95c1.154 0 2.052-.9 2.051-1.965Zm.667 0V8.631C30.667 7.178 29.45 6 27.949 6H4.051c-1.5 0-2.718 1.178-2.718 2.631v14.737C1.333 24.822 2.55 26 4.051 26h23.898c1.502 0 2.719-1.178 2.718-2.632Z"
		clip-rule="evenodd" />
	<path fill="#2B70C8" stroke="#fff" stroke-width=".667"
		d="M7.063 12.917h-.231l-.081.216-2.063 5.5-.17.45h1.974l.075-.23.331-1.02h1.86l.33 1.02.076.23h2.919V16.517l.854 2.347.08.22H14.573l.081-.215.886-2.314v2.528h1.761v-6.166H14.954l-.08.217-1.064 2.874-1.06-2.873-.08-.218H10.014v3.463l-1.073-3.235-.076-.228H7.063Zm11.406 0h-.333v6.166h4.901l.1-.13 1.11-1.438 1.111 1.439.1.13H27.667l-.4-.534L25.354 16l1.913-2.55.4-.533h-2.324l-.1.12-1.091 1.315-.876-1.29-.1-.145H18.47Zm-10.935 3.03.216-.606.216.607h-.432Zm14.488 1.376h-2.126v-.427h2.447l-.321.427Zm.999-1.324-.625.828V15.167l.625.832Zm-.875-1.166.204.272H19.896v-.272h2.25Z" />
</svg>