<svg width="43" height="16" viewBox="0 0 43 16" fill="none" xmlns="http://www.w3.org/2000/svg">
<g clip-path="url(#clip0_1030_3233)">
<path fill-rule="evenodd" clip-rule="evenodd" d="M29.3592 -0.000244141H30.6808C30.8879 -0.000244141 31.0557 0.161867 31.0557 0.36185L30.556 4.14741C30.556 4.3474 30.3881 4.50951 30.1811 4.50951H29.8591C29.652 4.50951 29.4842 4.3474 29.4842 4.14741L28.9843 0.36185C28.9843 0.161867 29.1522 -0.000244141 29.3592 -0.000244141ZM35.3131 15.782H36.527C36.7104 15.782 36.8585 15.6374 36.8566 15.4603L36.8168 11.7764H36.8311C37.3115 12.4791 38.3007 12.9289 39.377 12.9289C41.5741 12.9289 43.0005 11.2712 43.0005 9.16255C43.0005 7.05392 41.5741 5.39563 39.377 5.39563C38.3007 5.39563 37.3115 5.81735 36.8311 6.52004H36.8168V5.89654C36.8168 5.72071 36.6693 5.57816 36.4872 5.57816H35.3131C35.131 5.57816 34.9835 5.7207 34.9835 5.89654V15.4636C34.9835 15.6394 35.131 15.782 35.3131 15.782ZM38.9697 11.1385C37.7255 11.1385 36.9652 10.2704 36.9652 9.16252C36.9652 8.05411 37.7255 7.18597 38.9697 7.18597C40.2134 7.18597 40.9602 8.05465 40.9602 9.16252C40.9602 10.2704 40.2134 11.1385 38.9697 11.1385ZM15.9488 12.448V11.3256L15.9487 11.3256C15.9487 11.1632 15.8224 11.0219 15.6548 11.0095C15.2853 10.9822 15.0676 10.7739 15.0756 10.2961V5.89662C15.0756 5.7208 14.9281 5.57825 14.746 5.57825H13.5138C13.3318 5.57825 13.1842 5.72078 13.1842 5.89662V9.31244C13.1842 10.4792 12.6019 11.1115 11.5688 11.1115C10.5067 11.1115 10.0998 10.4649 10.0998 9.53733V5.89663C10.0998 5.72081 9.95222 5.57826 9.77019 5.57826H8.53735C8.35534 5.57826 8.20777 5.7208 8.20777 5.89663V10.1039C8.20777 11.7342 9.18281 12.9153 11.0014 12.9153C12.515 12.9153 13.2714 12.1558 13.548 11.7627C13.8245 12.4094 14.4933 12.7745 15.3227 12.7745C15.4487 12.7745 15.5541 12.7709 15.6404 12.7659C15.8143 12.7558 15.9488 12.6164 15.9488 12.448ZM18.8605 15.782H17.6465C17.4644 15.782 17.3169 15.6394 17.3169 15.4636V5.89654C17.3169 5.7207 17.4645 5.57816 17.6465 5.57816H18.8207C19.0027 5.57816 19.1502 5.72071 19.1502 5.89654V6.52004H19.1645C19.6449 5.81735 20.6341 5.39563 21.7104 5.39563C23.9075 5.39563 25.3339 7.05392 25.3339 9.16255C25.3339 11.2712 23.9075 12.9289 21.7104 12.9289C20.6341 12.9289 19.6449 12.4791 19.1645 11.7764H19.1502L19.19 15.4603C19.1919 15.6374 19.0438 15.782 18.8604 15.782L18.8605 15.782ZM19.2986 9.16252C19.2986 10.2704 20.0589 11.1385 21.3031 11.1385C22.5468 11.1385 23.2936 10.2704 23.2936 9.16252C23.2936 8.05465 22.5468 7.18597 21.3031 7.18597C20.0589 7.18597 19.2986 8.05411 19.2986 9.16252ZM1.1118 14.3375L0.749032 15.2348C0.685853 15.3911 0.757579 15.5704 0.915632 15.6399C1.49848 15.8963 2.19618 15.9991 2.97026 15.9997C5.60624 15.9997 6.83756 14.223 6.83756 12.2497V5.88417C6.83756 5.70834 6.69 5.5658 6.50797 5.5658H5.28421C5.10218 5.5658 4.95463 5.70833 4.95463 5.88417V9.2944C4.95463 10.4559 4.37494 11.0854 3.34649 11.0854C2.28914 11.0854 1.88342 10.4417 1.88342 9.51828V5.8863C1.88342 5.71047 1.73586 5.56792 1.55384 5.56792H0.33007C0.148042 5.56792 0.000488281 5.71046 0.000488281 5.8863V10.0674C0.000488281 11.6903 0.971156 12.8934 2.78156 12.8934C3.88258 12.8934 4.57786 12.4736 4.98356 12.0822C5.07312 13.6687 4.34461 14.3929 2.92662 14.3905C2.34744 14.3905 1.84921 14.262 1.52733 14.1529C1.35964 14.0961 1.17645 14.1776 1.1118 14.3375ZM26.0002 9.15905C26.0002 6.95266 27.7352 5.40234 30.0046 5.40234C32.2745 5.40234 34.0088 6.95266 34.0088 9.15905C34.0088 11.3649 32.2744 12.9152 30.0045 12.9152C27.7351 12.9152 26.0002 11.3649 26.0002 9.15905ZM28.027 9.15904C28.027 10.2203 28.7689 11.1087 30.0045 11.1087C31.2406 11.1087 31.982 10.2203 31.982 9.15904C31.982 8.09777 31.2407 7.2088 30.0045 7.2088C28.7689 7.2088 28.027 8.09777 28.027 9.15904ZM25.8496 0.900394L24.705 1.53873C24.5257 1.63873 24.4643 1.86018 24.5678 2.03336L26.9601 5.07032C27.0637 5.24351 27.2929 5.30285 27.4722 5.20286L27.7511 5.0473C27.9304 4.94731 27.9918 4.72585 27.8883 4.55268L26.3617 1.03291C26.2581 0.859723 26.0289 0.800389 25.8496 0.900394ZM34.1866 0.915026L35.3311 1.55337C35.5104 1.65336 35.5718 1.87483 35.4683 2.04802L33.0761 5.08504C32.9726 5.25823 32.7434 5.31758 32.5641 5.21759L32.2852 5.06204C32.1059 4.96204 32.0445 4.74059 32.148 4.5674L33.6745 1.04757C33.778 0.874381 34.0073 0.815035 34.1866 0.915026Z" fill="#DE5F3F"/>
</g>
<defs>
<clipPath id="clip0_1030_3233">
<rect width="43" height="16" fill="white"/>
</clipPath>
</defs>
</svg>
