<svg xmlns="http://www.w3.org/2000/svg" width="32" height="32" fill="none">
	<path fill="#fff"
		d="M27.949 26H4.051c-1.5 0-2.718-1.178-2.718-2.632V8.63C1.333 7.178 2.55 6 4.051 6h23.898c1.5 0 2.718 1.178 2.718 2.631v14.737c0 1.454-1.216 2.632-2.718 2.632Z" />
	<path fill="#CFD8DC" fill-rule="evenodd"
		d="M30 23.368V8.63c0-1.064-.898-1.964-2.051-1.964H4.051C2.898 6.667 2 7.567 2 8.63v14.737c0 1.066.898 1.965 2.051 1.965h23.898c1.154 0 2.052-.9 2.051-1.965Zm.667 0V8.63C30.667 7.178 29.45 6 27.949 6H4.051c-1.5 0-2.718 1.178-2.718 2.631v14.737C1.333 24.822 2.55 26 4.051 26h23.898c1.502 0 2.719-1.178 2.718-2.632Z"
		clip-rule="evenodd" />
	<path fill="#F79410"
		d="M24.453 19.93v-.207h-.054l-.063.142-.062-.142h-.054v.207h.038v-.157l.059.135h.04l.058-.135v.157h.038Zm-.343 0v-.172h.07v-.035h-.177v.035h.069v.172h.038Z" />
	<path fill="#FF5F00" d="M18.312 20.827h-4.675V12.35h4.675v8.477Z" />
	<path fill="#EB001B"
		d="M13.937 16.59a5.4 5.4 0 0 1 2.04-4.24 5.289 5.289 0 0 0-3.302-1.152c-2.95 0-5.342 2.414-5.342 5.392 0 2.977 2.392 5.391 5.342 5.391 1.247 0 2.393-.43 3.302-1.153a5.4 5.4 0 0 1-2.04-4.238Z" />
	<path fill="#F79E1B"
		d="M24.616 16.59c0 2.977-2.392 5.391-5.342 5.391a5.29 5.29 0 0 1-3.302-1.153 5.4 5.4 0 0 0 2.04-4.238 5.4 5.4 0 0 0-2.04-4.24 5.29 5.29 0 0 1 3.302-1.152c2.95 0 5.342 2.414 5.342 5.392Z" />
</svg>