<svg xmlns="http://www.w3.org/2000/svg" width="16" height="16" fill="none">
	<path fill="#29363d" d="M8.5 10.366a1 1 0 1 0-1 0V11.5a.5.5 0 0 0 1 0v-1.134Z" />
	<path fill="#29363d" fill-rule="evenodd"
		d="M3.5 4v2.063A2 2 0 0 0 2 8v3.5A3.5 3.5 0 0 0 5.5 15h5a3.5 3.5 0 0 0 3.5-3.5V8a2 2 0 0 0-1.5-1.937V4a3 3 0 0 0-3-3h-3a3 3 0 0 0-3 3Zm3-2a2 2 0 0 0-2 2v2h1V4.5A1.5 1.5 0 0 1 7 3h2a1.5 1.5 0 0 1 1.5 1.5V6h1V4a2 2 0 0 0-2-2h-3Zm3 4V4.5A.5.5 0 0 0 9 4H7a.5.5 0 0 0-.5.5V6h3ZM4 7a1 1 0 0 0-1 1v3.5A2.5 2.5 0 0 0 5.5 14h5a2.5 2.5 0 0 0 2.45-2H12a.5.5 0 1 1 0-1h1V9.5h-1a.5.5 0 1 1 0-1h1V8a1 1 0 0 0-1-1H4Z"
		clip-rule="evenodd" />
</svg>
