<svg xmlns="http://www.w3.org/2000/svg" width="32" height="32" fill="none">
	<path fill="#fff"
		d="M27.949 26H4.051c-1.5 0-2.718-1.178-2.718-2.632V8.63C1.333 7.178 2.55 6 4.051 6H27.95c1.5 0 2.718 1.178 2.718 2.631v14.737c0 1.454-1.216 2.632-2.718 2.632Z" />
	<path fill="#CFD8DC" fill-rule="evenodd"
		d="M30 23.368V8.63c0-1.064-.898-1.964-2.051-1.964H4.051C2.898 6.667 2 7.567 2 8.63v14.737c0 1.066.898 1.965 2.051 1.965H27.95c1.154 0 2.052-.9 2.051-1.965Zm.667 0V8.63C30.667 7.178 29.45 6 27.949 6H4.051c-1.5 0-2.718 1.178-2.718 2.631v14.737C1.333 24.822 2.55 26 4.051 26H27.95c1.502 0 2.719-1.178 2.718-2.632Z"
		clip-rule="evenodd" />
	<path fill="#0066B2"
		d="M14.134 18.992h-1.648l1.03-6.325h1.648l-1.03 6.325ZM11.1 12.667l-1.571 4.35-.186-.937-.554-2.844s-.066-.57-.782-.57H5.41l-.03.107s.794.165 1.723.724l1.431 5.495h1.717l2.622-6.325H11.1ZM24.061 18.992h1.513l-1.32-6.325H22.93c-.612 0-.76.471-.76.471l-2.457 5.854h1.718l.343-.939h2.094l.194.94Zm-1.813-2.238.866-2.368.488 2.368h-1.354ZM19.84 14.301l.236-1.359s-.726-.275-1.482-.275c-.818 0-2.76.357-2.76 2.094 0 1.634 2.28 1.655 2.28 2.513 0 .857-2.045.704-2.72.163l-.245 1.42s.735.358 1.86.358c1.124 0 2.82-.583 2.82-2.166 0-1.645-2.299-1.798-2.299-2.513.001-.715 1.605-.623 2.31-.235Z" />
	<path fill="#F9A533"
		d="m9.333 16-.559-2.777s-.067-.556-.789-.556H5.364l-.03.104s1.26.253 2.467 1.199C8.956 14.873 9.333 16 9.333 16Z" />
</svg>